<?xml version="1.0" encoding="utf-8"?>
<!-- Generator: Adobe Illustrator 16.0.0, SVG Export Plug-In . SVG Version: 6.00 Build 0)  -->
<!DOCTYPE svg PUBLIC "-//W3C//DTD SVG 1.1//EN" "http://www.w3.org/Graphics/SVG/1.1/DTD/svg11.dtd">
<svg version="1.1" id="Capa_1" xmlns="http://www.w3.org/2000/svg" xmlns:xlink="http://www.w3.org/1999/xlink" x="0px" y="0px"
	 width="30.239px" height="30.239px" viewBox="0 0 30.239 30.239" enable-background="new 0 0 30.239 30.239" xml:space="preserve">
<g>
	<path fill="#898585" d="M20.194,3.46c-4.613-4.613-12.121-4.613-16.734,0c-4.612,4.614-4.612,12.121,0,16.735
		c4.108,4.106,10.506,4.548,15.117,1.341c0.096,0.459,0.318,0.896,0.676,1.254l6.718,6.717c0.979,0.978,2.562,0.978,3.534,0
		c0.979-0.978,0.979-2.56,0-3.534l-6.717-6.72c-0.355-0.354-0.795-0.578-1.254-0.674C24.743,13.967,24.303,7.57,20.194,3.46z
		 M18.073,18.075c-3.444,3.443-9.049,3.443-12.492,0c-3.442-3.445-3.442-9.049,0-12.493c3.443-3.443,9.048-3.443,12.492,0
		C21.517,9.026,21.517,14.63,18.073,18.075z"/>
</g>
</svg>
